HIERARCHY
ROOT Hips
{
  OFFSET 265.287 66.7526 -254.649
  CHANNELS 6 Xposition Yposition Zposition Zrotation Xrotation Yrotation
  JOINT LeftUpLeg
  {
    OFFSET 8.64259 1.95398 -2.38835
    CHANNELS 3 Zrotation Xrotation Yrotation
    JOINT LeftLeg
    {
      OFFSET 43.7702 0 0
      CHANNELS 3 Zrotation Xrotation Yrotation
      JOINT LeftFoot
      {
        OFFSET 40.6238 0 0
        CHANNELS 3 Zrotation Xrotation Yrotation
        JOINT LeftToeBase
        {
          OFFSET 12.7242 0 0
          CHANNELS 3 Zrotation Xrotation Yrotation
          End Site
          {
            OFFSET 0 0 0
          }
        }
      }
    }
  }
  JOINT RightUpLeg
  {
    OFFSET -8.2249 1.95398 -2.59336
    CHANNELS 3 Zrotation Xrotation Yrotation
    JOINT RightLeg
    {
      OFFSET 43.5653 0 0
      CHANNELS 3 Zrotation Xrotation Yrotation
      JOINT RightFoot
      {
        OFFSET 40.6238 0 0
        CHANNELS 3 Zrotation Xrotation Yrotation
        JOINT RightToeBase
        {
          OFFSET 12.7242 0 0
          CHANNELS 3 Zrotation Xrotation Yrotation
          End Site
          {
            OFFSET 0 0 0
          }
        }
      }
    }
  }
  JOINT Spine
  {
    OFFSET 0.165834 0.87714 6.61349
    CHANNELS 3 Zrotation Xrotation Yrotation
    JOINT Spine1
    {
      OFFSET 7.38963 1.71661e-005 0
      CHANNELS 3 Zrotation Xrotation Yrotation
      JOINT Spine2
      {
        OFFSET 11.9445 1.14441e-005 0
        CHANNELS 3 Zrotation Xrotation Yrotation
        JOINT Spine3
        {
          OFFSET 14.7254 4.19617e-005 0
          CHANNELS 3 Zrotation Xrotation Yrotation
          JOINT Spine4
          {
            OFFSET 10.9679 0 0
            CHANNELS 3 Zrotation Xrotation Yrotation
            JOINT RightShoulder
            {
              OFFSET 2.46616 -1.6653 3.69651
              CHANNELS 3 Zrotation Xrotation Yrotation
              JOINT RightArm
              {
                OFFSET 13.0012 0 0
                CHANNELS 3 Zrotation Xrotation Yrotation
                JOINT RightForeArm
                {
                  OFFSET 28.7848 1.52588e-005 0
                  CHANNELS 3 Zrotation Xrotation Yrotation
                  JOINT RightHand
                  {
                    OFFSET 26.5688 1.52588e-005 0
                    CHANNELS 3 Zrotation Xrotation Yrotation
                    End Site
                    {
                      OFFSET 0 0 0
                    }
                  }
                }
              }
            }
            JOINT LeftShoulder
            {
              OFFSET 2.38034 -1.29275 -3.7523
              CHANNELS 3 Zrotation Xrotation Yrotation
              JOINT LeftArm
              {
                OFFSET 16.3182 6.10351e-005 0
                CHANNELS 3 Zrotation Xrotation Yrotation
                JOINT LeftForeArm
                {
                  OFFSET 27.0901 0 0
                  CHANNELS 3 Zrotation Xrotation Yrotation
                  JOINT LeftHand
                  {
                    OFFSET 24.5451 1.52588e-005 0
                    CHANNELS 3 Zrotation Xrotation Yrotation
                    End Site
                    {
                      OFFSET 0 0 0
                    }
                  }
                }
              }
            }
            JOINT Neck
            {
              OFFSET 5.0226 -0.0266342 0
              CHANNELS 3 Zrotation Xrotation Yrotation
              JOINT Head
              {
                OFFSET 6.69364 2.86102e-005 0
                CHANNELS 3 Zrotation Xrotation Yrotation
                End Site
                {
                  OFFSET 0 0 0
                }
              }
            }
          }
        }
      }
    }
  }
}
MOTION
Frames:	12
Frame Time:	0.0416667
-316.853 94.7865 21.2217 91.4302 2.40719 90.5682 -175.116 1.63499 89.9144 -8.99143 19.5091 3.55251 58.0293 1.37378 10.376 36.4604 -2.37463 -0.0583169 176.416 5.39121 88.9365 -16.5978 2.16112 -1.2731 60.6282 3.82803 13.3383 30.69 -0.440775 1.67506 -0.206383 7.27195 -90.2432 12.3288 -0.52552 -0.426178 0.657954 -0.543788 -0.402633 -21.8771 -0.373135 -0.56441 -1.86449 -0.373155 -0.564419 101.007 -51.1499 -83.9471 31.01 -2.93082 -3.92813 -3.27925 -28.0538 -17.0905 -19.5099 -2.02767 6.89072 -80.0018 -47.2992 93.4824 -34.5318 10.7874 -12.9634 17.6236 33.7476 -23.3983 10.1775 0.584795 1.76589 -1.8339 -0.678598 -12.4077 0.366577 1.60357 21.8272 
-316.778 94.797 21.301 91.7197 2.70381 90.273 -174.752 1.03986 89.8532 -8.22943 17.5558 3.04623 59.2641 1.94978 9.38325 35.1806 -1.85034 -2.4807 175.873 5.29672 88.5219 -17.1859 2.18266 -0.894315 61.4663 3.51429 12.8738 29.1358 -0.231507 1.61659 -0.184671 7.27079 -90.2201 12.3314 -0.471614 -0.386095 0.660434 -0.488111 -0.364978 -21.8746 -0.333767 -0.509985 -1.86197 -0.333744 -0.509977 100.705 -50.1515 -84.4389 31.8962 -3.48853 -3.24162 -2.39493 -25.1443 -15.9936 -17.7457 -1.72051 6.1388 -79.2581 -47.2276 94.647 -34.9449 10.9083 -12.7527 13.9261 29.3258 -20.1031 3.82238 -0.110636 -4.34017 7.17353 0.405659 -6.41244 -13.1288 0.720379 10.7201 
-316.458 94.8018 21.5984 91.3132 2.56119 90.6054 -175.133 1.93296 90.2808 -9.96723 21.553 3.84324 57.524 1.09004 10.7495 37.8779 -2.84895 1.64125 175.995 5.43607 88.9824 -17.0593 2.69499 -0.78132 61.31 3.54212 13.5253 29.2126 -0.19441 1.19787 -0.114216 7.25929 -90.2483 12.3546 -0.344652 -0.457179 0.683577 -0.36444 -0.441572 -21.8511 -0.19134 -0.539627 -1.83841 -0.191327 -0.539626 100.804 -50.4829 -84.2745 31.2365 -3.87208 -3.57533 -2.82214 -25.3224 -16.3555 -16.4758 -1.6799 6.7176 -80.571 -48.7758 92.6693 -33.8741 10.3985 -11.3245 13.0342 27.2081 -19.7878 4.77463 0.052094 -2.05218 5.45239 0.210412 -6.16806 -10.8425 0.661135 10.6628 
-316.098 94.6727 21.9051 91.1131 3.14561 90.544 -175.299 2.07146 90.2795 -10.1652 19.9272 4.05578 58.7745 1.50116 9.29139 36.9198 -2.53278 0.641504 175.584 5.41167 89.0708 -17.3477 3.27827 -0.234453 62.6647 2.58206 12.1346 28.8546 -0.326794 2.76558 -0.164693 7.33707 -90.2391 12.1988 -0.440494 -0.428046 0.527864 -0.458904 -0.408246 -22.007 -0.291502 -0.540644 -1.99439 -0.291483 -0.540642 100.838 -50.4876 -84.2231 31.1588 -4.049 -3.83297 -2.90881 -24.9134 -16.7096 -16.5416 -1.66831 6.60127 -81.8125 -49.8107 90.8305 -32.5053 9.63338 -10.5232 12.8947 25.6155 -20.0595 6.06464 0.150308 -1.13387 7.25089 0.232105 -5.54672 -12.3782 0.579461 9.87679 
-315.743 94.6733 22.3694 90.4718 3.67711 90.3733 -175.345 2.00556 90.2437 -8.96778 20.1727 4.07205 58.3174 1.40999 9.67302 37.2604 -2.62962 0.191925 175.775 6.30462 89.075 -18.3776 5.19433 -0.423901 62.5875 3.38251 15.1158 28.9303 -0.257709 2.08359 -0.235605 7.35312 -90.2237 12.1666 -0.574118 -0.382617 0.495721 -0.590388 -0.356992 -22.0396 -0.432583 -0.537479 -2.02697 -0.432562 -0.537477 100.594 -49.8897 -84.6199 31.8673 -4.04048 -3.9593 -2.95481 -25.5685 -16.4617 -15.8314 -1.59052 6.57545 -81.5469 -49.7808 91.2326 -32.0434 10.4818 -11.0671 12.7142 26.2148 -19.9781 6.28234 0.0983021 -1.87488 6.42176 0.598443 -5.03966 -10.4293 0.97443 9.79826 
-315.129 94.574 23.0533 90.4345 4.08603 90.1038 -175.402 2.02323 90.494 -9.65044 20.8609 4.34289 58.554 1.3783 8.90967 38.351 -3.00507 2.0168 175.912 6.45311 89.3479 -19.5769 5.07939 -0.532637 63.5283 2.87919 14.6666 29.9738 -0.33236 1.51067 -0.295153 7.43153 -90.2179 12.0097 -0.689506 -0.359661 0.338903 -0.704644 -0.328974 -22.1969 -0.549549 -0.550264 -2.18423 -0.549532 -0.550259 100.406 -50.141 -84.9045 31.6974 -4.13268 -3.87333 -2.05987 -25.1436 -15.4903 -17.9576 -1.91025 7.21897 -81.7785 -50.0026 90.8965 -30.4145 12.7937 -12.2004 12.3373 28.2183 -20.2058 5.37445 0.137044 -0.994567 6.15432 1.05489 -4.7652 -10.2339 1.32347 10.6738 
-314.207 94.5045 23.9759 90.0914 2.98161 90.2898 -174.726 1.66958 91.224 -9.54786 20.207 4.17878 59.1723 1.72653 8.86225 38.714 -3.11249 2.26671 176.173 7.34051 89.9312 -21.4668 3.76286 -0.533025 63.1496 2.95592 15.1104 31.5781 -0.445692 0.461538 -0.230115 7.49451 -90.2684 11.8835 -0.583948 -0.47261 0.212581 -0.604185 -0.446459 -22.3225 -0.414911 -0.626256 -2.30984 -0.414918 -0.626263 100.569 -50.3572 -84.6449 31.4191 -3.94615 -4.57031 -1.55529 -25.7011 -13.8866 -17.6639 -1.76186 6.44608 -81.2807 -49.5453 91.622 -29.4502 14.1603 -15.2508 12.7502 32.6478 -19.66 3.2482 0.124422 0.0127996 6.09948 1.62176 -4.61875 -10.6424 1.81039 10.6802 
-312.659 94.3592 25.0012 90.3521 1.90094 90.039 -175.525 0.70858 91.1631 -10.4578 17.0201 5.09491 60.2627 2.43889 7.81051 39.6504 -3.39079 2.48334 176.169 6.66175 90.2883 -22.5563 2.69293 -0.492408 64.3508 2.43579 14.3437 31.7141 -0.447237 0.287321 -0.231814 7.5418 -90.2604 11.789 -0.583273 -0.457338 0.118095 -0.602815 -0.431234 -22.417 -0.418852 -0.611487 -2.40438 -0.418868 -0.611497 100.687 -50.9162 -84.446 31.1321 -3.66713 -3.55449 -1.98269 -25.4519 -14.5879 -16.8475 -1.71197 6.68495 -81.3654 -49.0403 91.4611 -29.9241 13.6577 -15.245 13.2516 31.1704 -20.5028 4.72101 0.306417 1.982 5.43116 1.84517 -6.24252 -10.5623 2.15968 13.2346 
-310.9 93.6434 26.1022 90.2301 0.531391 89.7591 -176.572 3.73887 91.5877 -18.789 15.7734 4.2419 61.7931 4.32737 10.3642 44.2564 -4.57981 5.79965 175.08 5.72128 90.3906 -23.2165 -0.119594 0.720948 69.125 -0.757895 9.0064 29.6791 -0.514607 3.61083 -0.15104 7.49905 -90.2816 11.8746 -0.432852 -0.515172 0.203569 -0.455118 -0.495626 -22.331 -0.257995 -0.621436 -2.31836 -0.258019 -0.62145 100.747 -50.7257 -84.3573 31.4338 -3.09227 -2.63049 -2.03553 -25.9922 -14.2463 -17.1224 -1.68963 6.33427 -81.3156 -48.7732 91.52 -30.3587 12.7899 -12.9932 14.3261 25.7295 -24.2416 4.69212 0.213303 0.549101 6.07773 2.69298 -5.90792 -12.2212 2.82092 12.6051 
-308.962 92.7893 27.0189 91.6585 -0.0401923 89.205 -178.464 10.8179 91.4085 -36.8676 13.9438 4.08755 60.0144 3.41032 8.04294 50.1943 -5.57209 11.895 175.359 4.95809 90.092 -27.7339 -0.281525 -0.088422 72.6524 0.152446 12.8571 28.6833 0.000241421 0.0748828 -0.0643966 7.7244 -90.3174 11.424 -0.276204 -0.604534 -0.247064 -0.302547 -0.591803 -22.7811 -0.0817736 -0.659599 -2.76849 -0.0817829 -0.659611 100.191 -50.3263 -85.2312 30.836 -3.85036 -2.91444 -1.02555 -26.0154 -13.2211 -17.6282 -1.81008 6.79302 -79.5656 -48.0719 94.1907 -32.026 12.3405 -13.2022 17.8733 26.5002 -28.4121 9.22138 0.426686 0.743837 6.71804 2.9264 -4.73861 -11.6836 2.94594 12.0517 
-306.512 92.0496 27.6312 92.3915 -0.466869 88.254 -178.765 18.9891 90.2669 -51.339 10.4001 2.98994 60.4095 3.74475 8.49395 49.278 -5.4537 10.9629 174.631 3.6112 89.1434 -29.7932 -2.18515 0.141861 74.9209 -0.770763 11.4533 30.9986 -0.178055 -1.54471 0.187491 7.84669 -90.3534 11.1806 0.208877 -0.723867 -0.490586 0.176826 -0.732374 -23.0245 0.416758 -0.627633 -3.01183 0.416771 -0.627635 100.476 -49.5 -84.8156 30.6169 -3.86232 -3.10275 -1.31937 -26.9031 -13.6503 -17.2713 -1.90973 7.71811 -79.5129 -49.6658 94.3269 -31.7014 12.0842 -12.325 19.6513 27.0312 -31.0331 6.60661 0.328374 0.994225 6.26214 2.54491 -3.53119 -10.7453 2.47279 11.1886 
-303.742 92.2106 27.9707 91.829 -1.03742 86.6369 -177.266 22.4689 87.7956 -44.3828 12.2025 1.46926 60.4242 3.3925 10.0601 49.7684 -5.52276 11.4505 173.913 1.91701 87.7252 -28.2618 -2.12624 -0.0242357 75.3071 -2.05266 9.77106 32.6938 -0.704463 1.79717 0.439034 7.79832 -90.1734 11.2794 0.793023 -0.424142 -0.391413 0.773575 -0.458635 -22.9284 0.883809 -0.166183 -2.91578 0.883794 -0.166192 101.013 -50.2361 -83.958 30.1339 -3.84469 -3.6018 -1.63321 -25.8394 -14.2404 -17.2468 -1.76449 6.75587 -80.475 -48.306 92.7901 -34.1909 11.0927 -10.4819 17.5848 26.3816 -27.9989 3.91699 0.116786 -0.729203 8.42094 1.49079 -5.93518 -12.7561 1.66968 13.0567 
